<?xml version="1.0" encoding="UTF-8" standalone="no"?>
<svg
   xmlns:dc="http://purl.org/dc/elements/1.1/"
   xmlns:cc="http://creativecommons.org/ns#"
   xmlns:rdf="http://www.w3.org/1999/02/22-rdf-syntax-ns#"
   xmlns:svg="http://www.w3.org/2000/svg"
   xmlns="http://www.w3.org/2000/svg"
   xmlns:xlink="http://www.w3.org/1999/xlink"
   xmlns:sodipodi="http://sodipodi.sourceforge.net/DTD/sodipodi-0.dtd"
   xmlns:inkscape="http://www.inkscape.org/namespaces/inkscape"
   style="isolation:isolate"
   viewBox="0 0 1487 368"
   width="1487pt"
   height="368pt"
   version="1.1"
   id="svg23"
   sodipodi:docname="logo_completa.svg"
   inkscape:version="1.0.2 (e86c870879, 2021-01-15, custom)">
  <metadata
     id="metadata27">
    <rdf:RDF>
      <cc:Work
         rdf:about="">
        <dc:format>image/svg+xml</dc:format>
        <dc:type
           rdf:resource="http://purl.org/dc/dcmitype/StillImage" />
      </cc:Work>
    </rdf:RDF>
  </metadata>
  <sodipodi:namedview
     pagecolor="#ffffff"
     bordercolor="#666666"
     borderopacity="1"
     objecttolerance="10"
     gridtolerance="10"
     guidetolerance="10"
     inkscape:pageopacity="0"
     inkscape:pageshadow="2"
     inkscape:window-width="1920"
     inkscape:window-height="1017"
     id="namedview25"
     showgrid="false"
     inkscape:zoom="0.45793129"
     inkscape:cx="1096.657"
     inkscape:cy="446.78706"
     inkscape:window-x="-8"
     inkscape:window-y="-8"
     inkscape:window-maximized="1"
     inkscape:current-layer="g21" />
  <defs
     id="defs5">
    <linearGradient
       inkscape:collect="always"
       id="linearGradient890">
      <stop
         style="stop-color:#f34524;stop-opacity:1;"
         offset="0"
         id="stop886" />
      <stop
         style="stop-color:#f06c1b;stop-opacity:1"
         offset="1"
         id="stop888" />
    </linearGradient>
    <clipPath
       id="_clipPath_GR52muLn6RRsEdEBaduPLHzPNKE7TOlY">
      <rect
         width="1487"
         height="368"
         id="rect2" />
    </clipPath>
    <linearGradient
       inkscape:collect="always"
       xlink:href="#linearGradient890"
       id="linearGradient872"
       x1="943.37305"
       y1="291.52844"
       x2="941.73517"
       y2="42.582809"
       gradientUnits="userSpaceOnUse" />
    <linearGradient
       inkscape:collect="always"
       xlink:href="#linearGradient890"
       id="linearGradient874"
       x1="943.37305"
       y1="291.52844"
       x2="941.73517"
       y2="42.582809"
       gradientUnits="userSpaceOnUse" />
    <linearGradient
       inkscape:collect="always"
       xlink:href="#linearGradient890"
       id="linearGradient876"
       x1="943.37305"
       y1="291.52844"
       x2="941.73517"
       y2="42.582809"
       gradientUnits="userSpaceOnUse" />
    <linearGradient
       inkscape:collect="always"
       xlink:href="#linearGradient890"
       id="linearGradient878"
       x1="943.37305"
       y1="291.52844"
       x2="941.73517"
       y2="42.582809"
       gradientUnits="userSpaceOnUse" />
    <linearGradient
       inkscape:collect="always"
       xlink:href="#linearGradient890"
       id="linearGradient880"
       x1="943.37305"
       y1="291.52844"
       x2="941.73517"
       y2="42.582809"
       gradientUnits="userSpaceOnUse" />
    <linearGradient
       inkscape:collect="always"
       xlink:href="#linearGradient890"
       id="linearGradient892"
       x1="943.37305"
       y1="291.52844"
       x2="941.73517"
       y2="42.582809"
       gradientUnits="userSpaceOnUse" />
    <linearGradient
       inkscape:collect="always"
       xlink:href="#linearGradient890"
       id="linearGradient894"
       x1="943.37305"
       y1="291.52844"
       x2="941.73517"
       y2="42.582809"
       gradientUnits="userSpaceOnUse" />
  </defs>
  <g
     clip-path="url(#_clipPath_GR52muLn6RRsEdEBaduPLHzPNKE7TOlY)"
     id="g21">
    <path
       d=" M 568 178.6 L 568 356.2 L 570.8 359 C 574.7 362.9 580.4 363.4 604.9 362.3 C 622 361.6 625.2 361.2 626.7 359.7 C 628.4 358 628.5 348.6 628.8 179.5 L 629 1 L 598.5 1 L 568 1 L 568 178.6 Z "
       fill="rgb(255,85,0)"
       id="path7"
       style="fill-opacity:1;fill:url(#linearGradient876)" />
    <path
       d=" M 1211.3 6.2 C 1209.8 10.8 1209.5 14.8 1209.5 35.2 C 1209.5 57.6 1209.6 59 1211.6 61.7 C 1212.7 63.2 1215.1 65.5 1216.8 66.6 C 1223.7 71.3 1228.1 71.5 1310.9 71.1 C 1375.9 70.8 1388.1 71 1387.4 72.1 C 1384.3 77.4 1348.7 132.5 1337.1 150 C 1321.7 173.3 1313 189.3 1313 194.4 C 1313 199 1315.3 201.6 1320.4 202.9 C 1323.2 203.6 1335.7 204 1354.2 204 L 1383.5 204 L 1410.5 163 C 1425.4 140.5 1444.4 111.6 1452.9 98.8 C 1476 63.9 1479.4 55.6 1479.3 34.5 C 1479.3 24.3 1477.5 10 1475.4 2.7 C 1474.9 1.1 1467.8 1 1344 1 L 1213.2 1 L 1211.3 6.2 Z "
       fill="rgb(255,85,0)"
       id="path9"
       style="fill-opacity:1;fill:url(#linearGradient894)" />
    <path
       d=" M 374.5 67.6 C 317.2 73.4 266.7 109.7 244.9 160.6 C 229.1 197.6 231 243 250.1 283.8 C 269.7 325.7 307 357.2 345.5 364.5 C 355.5 366.4 404.4 367.5 414.5 366.1 C 426.1 364.5 436.2 360.8 454.9 351.4 C 480.5 338.5 493 328.1 510.1 305.1 C 523.7 286.9 531.3 269.1 535.2 246.5 C 537.9 230.9 537.3 204 534.1 188.7 C 524.7 145.4 501.2 112.3 463 88.7 C 448.4 79.7 429.2 72.5 412.3 69.5 C 403.4 67.9 381.9 66.9 374.5 67.6 Z  M 410.4 134.5 C 424 136.9 436.8 144.8 451.3 159.5 C 467.8 176.2 473.7 193.8 472.7 222.5 C 472.3 234.2 471.8 237.9 469.5 245 C 461.7 269.2 446.8 287.3 426.6 297 C 412.2 303.9 408.8 304.5 385.5 304.5 C 357.9 304.4 349.5 302.3 335 291.2 C 307.6 270.4 296 246.8 297.3 214.5 C 297.9 200.4 299.9 191.7 304.9 180.5 C 316 156 338.4 138.3 363.2 134.1 C 371.9 132.7 401.6 132.9 410.4 134.5 Z "
       fill="rgb(255,85,0)"
       id="path11"
       style="fill-opacity:1;fill:url(#linearGradient874)" />
    <path
       d=" M 792 67.6 C 759.2 70.7 727 86 703.5 109.7 C 644.4 169.1 644.6 264.9 703.9 326.3 C 709.7 332.3 718.3 340.1 723 343.6 C 734.5 352.3 751 360.4 763.5 363.5 C 773 365.9 775 366.1 805 366.3 C 828.1 366.4 838.1 366.1 842.5 365.2 C 851.4 363.2 866.4 355.5 884.5 343.6 L 900.5 333.1 L 900.8 347.6 L 901.1 362 L 931.5 362 L 962 362 L 962 221.7 C 962 83.9 962 81.3 960 79.3 C 956.3 75.3 952 74.7 929.5 75.2 C 916.1 75.5 907.6 76.1 906.2 76.9 C 901.6 79.4 900.5 82.6 900.7 93.7 C 900.8 99.4 900.5 104 900 104 C 899.5 104 893.7 100.2 887 95.5 C 864 79.3 852.5 73.8 834.2 70 C 824.2 68 801.7 66.7 792 67.6 Z  M 831.9 131.1 C 857.6 137.1 880.1 155.2 891.5 179.1 C 896.8 190.3 899.1 200.6 899.7 215 C 900.8 242.8 891.1 267.5 872.1 285.2 C 844.3 311 805.4 316.2 770.3 298.8 C 747.9 287.7 730.1 266.2 723.3 242 C 720.6 232.2 720.9 206.5 723.9 195.5 C 726.3 186.6 732.3 173.4 737 166.5 C 747.9 150.7 764.8 138.5 784 132.6 C 799.9 127.7 815.2 127.2 831.9 131.1 Z "
       fill="rgb(255,85,0)"
       id="path13"
       style="fill-opacity:1;fill:url(#linearGradient878)" />
    <path
       d=" M 98.9 69 C 72.9 72 52.3 81.4 36.5 97.4 C 26.7 107.3 23.2 112.5 16.4 127.7 C 8.3 145.9 7.3 158.5 12.6 176.9 C 16.1 188.8 20.2 196 28.8 205.2 C 46.5 223.9 58.6 230.9 83 236.5 C 100.5 240.5 108.5 243 128.4 250.7 C 152 259.8 159.1 264.7 161.8 273.9 C 167.3 292.1 155.2 304.8 128.9 308.1 C 112.9 310.2 95.4 306.9 79.9 298.9 C 70.3 293.9 66.1 289.6 60.2 278.5 C 54.4 267.3 52.3 266 44.7 268.5 C 41.8 269.4 34.8 272.9 29 276.2 C 23.2 279.6 15.6 284 12 286.1 C 2.5 291.5 0.6 293.9 1.4 299 C 3.5 312.2 21.4 334.1 41.4 347.9 C 50.8 354.3 62.3 360.1 71.5 363 C 86 367.5 136.3 368.2 155.9 364.1 C 166.5 361.8 179.1 356.2 188.4 349.6 C 196.2 344.1 207.3 332.4 212.8 324 C 228.9 299.4 230.4 265.1 216.3 241 C 211 232 199.3 220 189.7 213.9 C 178.9 207 169.7 203.3 144.5 196 C 102.2 183.8 98.7 182.4 82.1 171.6 L 74.7 166.9 L 75.4 158.9 C 76.7 143.4 82.2 134.8 93.2 131.5 C 96.1 130.6 104 129.6 110.7 129.3 C 135.9 128.1 149.7 134.2 161.2 151.4 C 169.7 164.1 170.8 164.4 185.8 157 C 193.3 153.4 216.2 140.6 220.7 137.5 C 220.9 137.4 219.9 134 218.5 130 C 211.8 110.2 195.5 92.8 173.5 81.8 C 152.7 71.4 122.8 66.2 98.9 69 Z "
       fill="rgb(255,85,0)"
       id="path15"
       style="fill-opacity:1;fill:url(#linearGradient872)" />
    <path
       d=" M 1127.9 72 C 1117.4 73.1 1105.2 76.9 1098.5 81.1 C 1095.8 82.8 1088.7 87.8 1082.9 92.1 C 1077.1 96.4 1072 100 1071.6 100 C 1071.3 100 1071 94.7 1071 88.1 L 1071 76.3 L 1065.8 75.6 C 1062.9 75.3 1051.4 75 1040.3 75 C 1016.8 75 1012.8 75.9 1010.4 81.6 C 1008.4 86.3 1008.3 352.1 1010.3 355.9 C 1010.9 357.2 1012.7 359.2 1014.3 360.4 C 1017.7 362.9 1028.7 363.5 1053.4 362.5 L 1070.8 361.8 L 1070.3 307.1 C 1069.6 237.5 1071.4 201.2 1076.5 181.6 C 1080.1 168 1089.7 154.7 1101.8 146.7 C 1111.4 140.3 1118.7 138.1 1136.2 136.5 C 1153 135 1155.3 134 1156.9 128.3 C 1157.5 126.1 1158 114.2 1158 100.8 C 1158 77.7 1157.9 77.1 1155.8 74.5 C 1153.7 72.2 1152.7 71.9 1145 71.5 C 1140.3 71.3 1132.6 71.5 1127.9 72 Z "
       fill="rgb(255,85,0)"
       id="path17"
       style="fill-opacity:1;fill:url(#linearGradient880)" />
    <path
       d=" M 1232.9 125.8 C 1228.1 126.7 1225.2 130.4 1192.7 178 C 1178.5 198.6 1159.2 226.5 1149.6 240 C 1129 269 1123.9 276.9 1119.9 285.5 L 1116.9 291.9 L 1117.2 318.2 C 1117.5 344 1117.6 344.6 1120 349.4 C 1124.8 358.9 1105.6 358 1304.8 358 C 1460 358 1480.4 357.8 1483 356.5 C 1488.4 353.7 1487.7 350.1 1476.5 322.4 C 1462.4 287.6 1458.8 281.1 1451.3 277.4 C 1447.7 275.6 1442.8 275.6 1336.9 275.9 C 1275.4 276.1 1226 275.8 1225.7 275.4 C 1225.2 274.5 1246.6 237.5 1273.3 193 C 1281.1 180.1 1290.2 163.9 1293.7 157.1 C 1300.3 144.1 1304.9 131.4 1303.4 130 C 1302.9 129.5 1298.7 128.4 1294 127.4 C 1287.7 126.2 1279.2 125.7 1261 125.5 C 1247.5 125.3 1234.9 125.5 1232.9 125.8 Z "
       fill="rgb(255,85,0)"
       id="path19"
       style="fill-opacity:1;fill:url(#linearGradient892)" />
  </g>
</svg>
